<svg width="24" height="24" viewBox="0 0 24 24" fill="none" xmlns="http://www.w3.org/2000/svg">
<path d="M9 17.7734C8.9 17.7734 8.81 17.7534 8.71 17.7134C8.43 17.6034 8.25 17.3234 8.25 17.0234V11.0234C8.25 10.6134 8.59 10.2734 9 10.2734C9.41 10.2734 9.75 10.6134 9.75 11.0234V15.2134L10.47 14.4934C10.76 14.2034 11.24 14.2034 11.53 14.4934C11.82 14.7834 11.82 15.2634 11.53 15.5534L9.53 17.5534C9.39 17.6934 9.19 17.7734 9 17.7734Z" fill="#0F0F0F"/>
<path d="M9.00043 17.7709C8.81043 17.7709 8.62043 17.7009 8.47043 17.5509L6.47043 15.5509C6.18043 15.2609 6.18043 14.7809 6.47043 14.4909C6.76043 14.2009 7.24043 14.2009 7.53043 14.4909L9.53043 16.4909C9.82043 16.7809 9.82043 17.2609 9.53043 17.5509C9.38043 17.7009 9.19043 17.7709 9.00043 17.7709Z" fill="#0F0F0F"/>
<path d="M15 22.7734H9C3.57 22.7734 1.25 20.4534 1.25 15.0234V9.02344C1.25 3.59344 3.57 1.27344 9 1.27344H14C14.41 1.27344 14.75 1.61344 14.75 2.02344C14.75 2.43344 14.41 2.77344 14 2.77344H9C4.39 2.77344 2.75 4.41344 2.75 9.02344V15.0234C2.75 19.6334 4.39 21.2734 9 21.2734H15C19.61 21.2734 21.25 19.6334 21.25 15.0234V10.0234C21.25 9.61344 21.59 9.27344 22 9.27344C22.41 9.27344 22.75 9.61344 22.75 10.0234V15.0234C22.75 20.4534 20.43 22.7734 15 22.7734Z" fill="#0F0F0F"/>
<path d="M22 10.772H18C14.58 10.772 13.25 9.44196 13.25 6.02196V2.02196C13.25 1.72196 13.43 1.44196 13.71 1.33196C13.99 1.21196 14.31 1.28196 14.53 1.49196L22.53 9.49196C22.74 9.70196 22.81 10.032 22.69 10.312C22.57 10.592 22.3 10.772 22 10.772ZM14.75 3.83196V6.02196C14.75 8.60196 15.42 9.27196 18 9.27196H20.19L14.75 3.83196Z" fill="#0F0F0F"/>
</svg>
